<svg width="32" height="21" viewBox="0 0 32 21" xmlns="http://www.w3.org/2000/svg">
    <path d="M30.359 0H1.64C.738 0 0 .727 0 1.615v17.77C0 20.273.738 21 1.641 21H30.36C31.26 21 32 20.273 32 19.385V1.615C32 .727 31.261 0 30.359 0zm-.616 1.211-12.799 9.45c-.23.173-.583.28-.944.28-.36 0-.714-.107-.944-.28l-12.8-9.45h27.487zm-6.837 10.074 6.975 8.48c.007.01.015.016.023.024H2.096l.023-.023 6.975-8.48a.6.6 0 0 0-.092-.853.622.622 0 0 0-.865.09L1.231 18.92V1.969l13.087 9.662c.492.36 1.09.52 1.682.52.59 0 1.19-.16 1.682-.52l13.087-9.662V18.92l-6.906-8.397a.622.622 0 0 0-.865-.09.6.6 0 0 0-.092.852z" fill="#FFF" fill-rule="nonzero"/>
</svg>
