<svg width="32" height="32" viewBox="0 0 32 32" xmlns="http://www.w3.org/2000/svg">
    <g fill="#FFF" fill-rule="nonzero">
        <path d="M19.977 8.738a3.977 3.977 0 1 0-7.955 0 3.977 3.977 0 0 0 7.955 0zm-7.012 0a3.035 3.035 0 1 1 6.07 0 3.035 3.035 0 0 1-6.07 0z"/>
        <path d="m31.969 31.361-3.84-10.067a.471.471 0 0 0-.44-.303h-7.267l.132-.215c2.797-4.63 4.204-8.68 4.184-12.036a8.738 8.738 0 1 0-17.476-.003c-.02 3.359 1.387 7.41 4.183 12.039l.133.215H4.311c-.196 0-.37.12-.44.303L.03 31.361a.47.47 0 0 0 .44.639H31.53a.471.471 0 0 0 .44-.639zM8.204 8.738a7.796 7.796 0 1 1 15.592.002c.04 6.691-6.215 14.944-7.796 16.923-1.581-1.978-7.837-10.229-7.796-16.925zm7.437 17.975a.471.471 0 0 0 .718 0 49.99 49.99 0 0 0 3.472-4.78h7.533l.603 1.58-14.72 5.236-5.248-6.817h4.17a49.99 49.99 0 0 0 3.472 4.78zm-2.411 3.041h.002l8.782-3.122 3.407 4.426H9.567l3.663-1.304zm-8.595-7.822H6.81l5.502 7.15-5.556 1.976H1.155l3.48-9.126zm21.976 9.126-3.663-4.76 5.356-1.905 2.542 6.665H26.61z"/>
    </g>
</svg>
