<svg width="32" height="32" viewBox="0 0 32 32" xmlns="http://www.w3.org/2000/svg">
    <g fill="#FFF" fill-rule="nonzero">
        <path d="M18.215 0a.625.625 0 0 0 0 1.25c6.912 0 12.535 5.625 12.535 12.538a.625.625 0 0 0 1.25 0C32 6.185 25.816 0 18.215 0z"/>
        <path d="M27.615 14.413c.345 0 .625-.28.625-.625 0-5.53-4.497-10.028-10.025-10.028a.625.625 0 0 0 0 1.25c4.839 0 8.775 3.938 8.775 8.778 0 .345.28.625.625.625z"/>
        <path d="M23.23 13.788a.625.625 0 0 0 1.25 0 6.272 6.272 0 0 0-6.265-6.266.625.625 0 1 0 0 1.25 5.02 5.02 0 0 1 5.015 5.016zM17.59 11.908c0 .345.28.624.625.624.692 0 1.255.563 1.255 1.256a.625.625 0 0 0 1.25 0 2.508 2.508 0 0 0-2.505-2.506.625.625 0 0 0-.625.626zM11.715 20.296a.625.625 0 1 1-1.25 0 .625.625 0 0 1 1.25 0z"/>
        <path d="M17.127 31.247c2.846 1.395 6.27.815 8.52-1.436l1.292-1.293a1.794 1.794 0 0 0 0-2.538l-4.992-4.994a1.792 1.792 0 0 0-2.538 0l-2.121 2.122c-.416.416-1.057.5-1.525.202a23.445 23.445 0 0 1-2.205-1.598.625.625 0 1 0-.791.968 24.65 24.65 0 0 0 2.323 1.684c.958.612 2.254.456 3.081-.372l2.122-2.122a.543.543 0 0 1 .77 0l4.993 4.994a.544.544 0 0 1 0 .77l-1.293 1.293a6.18 6.18 0 0 1-7.086 1.198c-8.66-4.248-13.372-10.983-15.8-15.885-1.161-2.345-.68-5.182 1.2-7.061l1.264-1.265a.542.542 0 0 1 .769 0l4.994 4.995a.543.543 0 0 1 0 .77L7.981 13.8c-.827.827-.983 2.123-.371 3.082.36.564.749 1.12 1.155 1.654a.625.625 0 1 0 .995-.757 23.52 23.52 0 0 1-1.097-1.57c-.299-.468-.214-1.11.202-1.525l2.12-2.122c.702-.7.703-1.837.001-2.538L5.994 5.031a1.792 1.792 0 0 0-2.537 0L2.193 6.295c-2.259 2.258-2.836 5.674-1.436 8.5 2.514 5.075 7.394 12.05 16.37 16.452z"/>
    </g>
</svg>
