<svg width="1000" height="860" viewBox="0 0 1000 860" xmlns="http://www.w3.org/2000/svg">
    <defs>
        <linearGradient x1="52.69%" y1="105.636%" x2="52.69%" y2="2.69%" id="117v2ukiza">
            <stop stop-color="#FFFDFD" offset="0%"/>
            <stop stop-color="#FEF8F5" offset="100%"/>
        </linearGradient>
    </defs>
    <path d="M999.992-.563c-5.246 61.841-15.433 105.967-30.562 132.377-24.906 43.48-70.524 81.536-119.651 92.803-45.466 10.426-62.977 36.191-82.281 77.342-7.443 15.867-13.842 67.842-47.152 103.906-15.501 16.782-53.777 35.159-114.83 55.13-63.556 23.212-112.305 47.123-146.246 71.733-33.94 24.61-70.187 74.999-108.738 151.164-12.075 30.936-22.923 52.004-32.543 63.204-33.196 38.645-76.146 59.16-104.752 73.213-41.042 20.161-113.095 33.264-216.159 39.308L.86.602 999.992-.562z" fill="url(#117v2ukiza)" fill-rule="evenodd"/>
</svg>
