<svg width="207" height="160" viewBox="0 0 207 160" xmlns="http://www.w3.org/2000/svg" xmlns:xlink="http://www.w3.org/1999/xlink">
    <defs>
        <filter x="-3.2%" y="-4.7%" width="106.5%" height="109.4%" filterUnits="objectBoundingBox" id="ozacect54a">
            <feOffset in="SourceAlpha" result="shadowOffsetOuter1"/>
            <feGaussianBlur stdDeviation="2" in="shadowOffsetOuter1" result="shadowBlurOuter1"/>
            <feColorMatrix values="0 0 0 0 0.759142889 0 0 0 0 0.759142889 0 0 0 0 0.759142889 0 0 0 0.5 0" in="shadowBlurOuter1"/>
        </filter>
        <filter x="-21.8%" y="-16.7%" width="143.6%" height="143.6%" filterUnits="objectBoundingBox" id="udx486lhic">
            <feMorphology radius=".5" operator="dilate" in="SourceAlpha" result="shadowSpreadOuter1"/>
            <feOffset dy="2" in="shadowSpreadOuter1" result="shadowOffsetOuter1"/>
            <feGaussianBlur stdDeviation="2" in="shadowOffsetOuter1" result="shadowBlurOuter1"/>
            <feColorMatrix values="0 0 0 0 0.0470588235 0 0 0 0 0.674509804 0 0 0 0 0.615686275 0 0 0 0.363171984 0" in="shadowBlurOuter1"/>
        </filter>
        <circle id="uf35m53ned" cx="178.232" cy="19.5" r="19.5"/>
        <rect id="h0aybekdjb" x="-.268" y="25" width="186" height="128" rx="8"/>
    </defs>
    <g fill="none" fill-rule="evenodd">
        <g transform="translate(4.268 3)">
            <use fill="#000" filter="url(#ozacect54a)" xlink:href="#h0aybekdjb"/>
            <use fill="#FFF" xlink:href="#h0aybekdjb"/>
        </g>
        <g transform="translate(131 47)" stroke="#EBEBEB" stroke-width=".5">
            <rect fill="#FFA885" x=".25" y=".25" width="47.5" height="71.5" rx="8"/>
            <path d="M40 .25c2.14 0 4.078.867 5.48 2.27A7.726 7.726 0 0 1 47.75 8v18.46H.25V8c0-2.14.867-4.078 2.27-5.48A7.726 7.726 0 0 1 8 .25z" fill="#FF6121"/>
            <path d="M40 71.75c2.14 0 4.078-.867 5.48-2.27A7.726 7.726 0 0 0 47.75 64V45.54H.25V64c0 2.14.867 4.078 2.27 5.48A7.726 7.726 0 0 0 8 71.75z" fill="#FFD8C8"/>
        </g>
        <g transform="translate(74 47)" stroke="#EBEBEB" stroke-width=".5">
            <rect fill="#57D4C9" x=".25" y=".25" width="47.5" height="71.5" rx="8"/>
            <path d="M40 .25c2.14 0 4.078.867 5.48 2.27A7.726 7.726 0 0 1 47.75 8v18.46H.25V8c0-2.14.867-4.078 2.27-5.48A7.726 7.726 0 0 1 8 .25z" fill="#0CAC9D"/>
            <path d="M40 71.75c2.14 0 4.078-.867 5.48-2.27A7.726 7.726 0 0 0 47.75 64V45.54H.25V64c0 2.14.867 4.078 2.27 5.48A7.726 7.726 0 0 0 8 71.75z" fill="#B8FCF5"/>
        </g>
        <g transform="translate(17 47)" stroke="#EBEBEB" stroke-width=".5">
            <rect fill="#D58DFF" x=".25" y=".25" width="47.5" height="71.5" rx="8"/>
            <path d="M40 .25c2.14 0 4.078.867 5.48 2.27A7.726 7.726 0 0 1 47.75 8v18.46H.25V8c0-2.14.867-4.078 2.27-5.48A7.726 7.726 0 0 1 8 .25z" fill="#AE21FF"/>
            <path d="M40 71.75c2.14 0 4.078-.867 5.48-2.27A7.726 7.726 0 0 0 47.75 64V45.54H.25V64c0 2.14.867 4.078 2.27 5.48A7.726 7.726 0 0 0 8 71.75z" fill="#EDCDFF"/>
        </g>
        <g transform="translate(4.268 3)">
            <use fill="#000" filter="url(#udx486lhic)" xlink:href="#uf35m53ned"/>
            <use fill="#FFF" xlink:href="#uf35m53ned"/>
        </g>
        <g fill-rule="nonzero">
            <path d="M182.495 32a9.543 9.543 0 0 1-8.55-5.329c-1.616-3.298-1.127-7.412 1.219-10.236a9.562 9.562 0 0 1 9.703-3.136.731.731 0 1 1-.366 1.415 8.092 8.092 0 0 0-8.211 2.655c-1.984 2.389-2.398 5.87-1.03 8.66 1.362 2.78 4.368 4.591 7.453 4.507a8.075 8.075 0 0 0 7.132-4.774 8.078 8.078 0 0 0 .436-5.274.731.731 0 0 1 1.417-.365 9.548 9.548 0 0 1-.514 6.23A9.546 9.546 0 0 1 182.495 32z" fill="#0CAC9D"/>
            <path d="M182.49 24.779a.73.73 0 0 1-.517-1.247l8.778-8.77a.732.732 0 0 1 1.035 1.033l-8.78 8.77a.73.73 0 0 1-.517.214z" fill="#FF6121"/>
            <path d="M182.49 24.779a.728.728 0 0 1-.518-.215l-3.104-3.1a.73.73 0 1 1 1.035-1.033l3.103 3.1a.73.73 0 0 1-.517 1.248z" fill="#FF6121"/>
        </g>
        <text font-family="BahijTheSansArabicBold, Bahij TheSansArabic" font-size="12" font-weight="bold" fill="#000" transform="translate(4.268 3)">
                    <tspan x="34.203" y="137.99">ثــــيم الوان علي كيفك</tspan>
                </text>
    </g>
</svg>
