<svg width="1920" height="658" viewBox="0 0 1920 658" xmlns="http://www.w3.org/2000/svg">
    <defs>
        <linearGradient x1="52.69%" y1="105.636%" x2="52.69%" y2="2.69%" id="avosr7dqwa">
            <stop stop-color="#FFFDFD" offset="0%"/>
            <stop stop-color="#FEF8F5" offset="100%"/>
        </linearGradient>
    </defs>
    <path d="M1924 66.443c-98.573 58.997-201.415 93.295-308.526 102.896-107.11 9.6-231.054-22.856-371.83-97.37-54.567-25.003-94.713-41.125-120.437-48.365C1069.27 8.422 1012.586 3.057 974.274.507c-65.72-4.376-164.426 19.595-296.115 71.912-105.956 53.31-178.959 83.755-219.008 91.333-47.938 9.071-119.769 13.406-187.265-.467C135.045 135.16-.134 64.81 0 62.276.277 56.963.277 255.538 0 658h1924V66.443z" fill="url(#avosr7dqwa)" fill-rule="evenodd"/>
</svg>
